# xmcd CD database file
#
# Track frame offsets:
#	150
#	23652
#	37391
#	61617
#	83119
#	105315
#	133419
#	162828
#	191038
#	218713
#
# Disc length: 3193 seconds
#
# Revision: 0
# Processed by: cddbd v1.5.2PL0 Copyright (c) Steve Scherf et al.
# Submitted via: CDex 1.70beta2
#
DISCID=840c770a
DTITLE=Nevertheless - Here and now
DYEAR=1999
DGENRE=Jazz
TTITLE0=Grey matter
TTITLE1=All that never will happen
TTITLE2=The last moment of a nice day
TTITLE3=Butterfly
TTITLE4=Travesty
TTITLE5=In love
TTITLE6=Scrapple from the apple
TTITLE7=Macadamia
TTITLE8=Here and now
TTITLE9=s'tote Meersäuli
EXTD=YEAR: 1999
EXTT0=
EXTT1=
EXTT2=
EXTT3=
EXTT4=
EXTT5=
EXTT6=
EXTT7=
EXTT8=
EXTT9=
PLAYORDER=
